<svg width="20" height="20" viewBox="0 0 20 20" fill="none" xmlns="http://www.w3.org/2000/svg">
<path d="M4.16797 5.55425H15.8346M14.3763 5.55425V14.295C14.3763 15.1247 14.3765 15.5396 14.2175 15.8565C14.0777 16.1353 13.8543 16.3618 13.5799 16.5039C13.2679 16.6653 12.8599 16.6654 12.0431 16.6654H7.95978C7.14303 16.6654 6.73436 16.6653 6.4224 16.5039C6.148 16.3618 5.92507 16.1353 5.78525 15.8565C5.6263 15.5396 5.6263 15.1247 5.6263 14.295V5.55425H14.3763ZM12.918 5.55425H7.08464C7.08464 4.86397 7.08464 4.51882 7.19564 4.24656C7.34366 3.88356 7.62737 3.59516 7.9847 3.4448C8.2527 3.33203 8.59264 3.33203 9.27214 3.33203H10.7305C11.41 3.33203 11.7497 3.33203 12.0177 3.4448C12.375 3.59516 12.6589 3.88356 12.8069 4.24656C12.9179 4.51882 12.918 4.86397 12.918 5.55425Z" stroke="#232727" stroke-width="1.5" stroke-linecap="round" stroke-linejoin="round"/>
</svg>
