<svg width="30" height="30" viewBox="0 0 30 30" fill="none" xmlns="http://www.w3.org/2000/svg">
<rect width="30" height="30" rx="10" fill="#FF4242"/>
<path d="M9.75 11H20.25M18.9375 11V18.8667C18.9375 19.6134 18.9376 19.9868 18.7946 20.272C18.6688 20.5229 18.4677 20.7268 18.2207 20.8547C17.94 21 17.5727 21 16.8376 21H13.1626C12.4276 21 12.0598 21 11.779 20.8547C11.532 20.7268 11.3314 20.5229 11.2056 20.272C11.0625 19.9868 11.0625 19.6134 11.0625 18.8667V11H18.9375ZM17.625 11H12.375C12.375 10.3787 12.375 10.0681 12.4749 9.82308C12.6081 9.49638 12.8635 9.23682 13.1851 9.10149C13.4263 9 13.7322 9 14.3438 9H15.6562C16.2678 9 16.5736 9 16.8148 9.10149C17.1364 9.23682 17.3918 9.49638 17.525 9.82308C17.6249 10.0681 17.625 10.3787 17.625 11Z" stroke="white" stroke-width="1.5" stroke-linecap="round" stroke-linejoin="round"/>
</svg>
