<svg width="367" height="102" viewBox="0 0 367 102" fill="none" xmlns="http://www.w3.org/2000/svg">
<g clip-path="url(#clip0_9046_134857)">
<rect width="367" height="102" rx="8" fill="#AECBFF"/>
<g filter="url(#filter0_d_9046_134857)">
<g clip-path="url(#clip1_9046_134857)">
<g clip-path="url(#clip2_9046_134857)">
<rect width="221.436" height="43.057" transform="translate(18 29)" fill="white"/>
<path d="M64.8068 49.4273L68.4113 53.8438H66.7259L63.3306 49.7472V53.8438H61.9158V45.2324H63.3306V49.0952L66.6029 45.2324H68.2883L64.8068 49.4273ZM71.4408 52.1707L73.0155 47.6928H74.4302L72.0682 54.0406C71.7812 54.8197 71.3793 55.402 70.8626 55.7875C70.346 56.1729 69.7473 56.3452 69.0666 56.3041V55.0616C69.8539 55.1109 70.3993 54.7172 70.7027 53.8807L70.7396 53.7945L68.1562 47.6928H69.5709L71.4408 52.1707ZM78.7424 47.5328C79.579 47.5328 80.3007 47.8486 80.9076 48.4801C81.5063 49.1034 81.8056 49.8661 81.8056 50.7683C81.8056 51.6786 81.5063 52.4454 80.9076 53.0687C80.3089 53.692 79.5872 54.0037 78.7424 54.0037C77.8157 54.0037 77.0981 53.6592 76.5896 52.9703V56.3041H75.261V47.6928H76.5896V48.5785C77.0899 47.8814 77.8075 47.5328 78.7424 47.5328ZM77.1432 52.183C77.5123 52.552 77.9756 52.7366 78.5333 52.7366C79.091 52.7366 79.5544 52.552 79.9234 52.183C80.2925 51.8057 80.477 51.3341 80.477 50.7683C80.477 50.2024 80.2925 49.7349 79.9234 49.3658C79.5544 48.9886 79.091 48.7999 78.5333 48.7999C77.9756 48.7999 77.5123 48.9886 77.1432 49.3658C76.7741 49.7349 76.5896 50.2024 76.5896 50.7683C76.5896 51.3259 76.7741 51.7975 77.1432 52.183ZM82.1175 47.6928H87.4689V48.9722H85.4637V53.8438H84.135V48.9722H82.1175V47.6928ZM91.0005 50.7067L93.8054 53.8438H92.2184L89.6965 51.002V53.8438H88.3679V47.6928H89.6965V50.4115L92.0831 47.6928H93.707L91.0005 50.7067ZM99.0781 48.5662V47.6928H100.407V53.8438H99.0781V52.958C98.5778 53.6551 97.8602 54.0037 96.9253 54.0037C96.0805 54.0037 95.3588 53.692 94.7601 53.0687C94.1614 52.4454 93.8621 51.6786 93.8621 50.7683C93.8621 49.8579 94.1614 49.0911 94.7601 48.4678C95.3588 47.8445 96.0805 47.5328 96.9253 47.5328C97.8602 47.5328 98.5778 47.8773 99.0781 48.5662ZM95.7443 52.183C96.1133 52.552 96.5767 52.7366 97.1344 52.7366C97.6921 52.7366 98.1555 52.552 98.5245 52.183C98.8936 51.8057 99.0781 51.3341 99.0781 50.7683C99.0781 50.2024 98.8936 49.7349 98.5245 49.3658C98.1555 48.9886 97.6921 48.7999 97.1344 48.7999C96.5767 48.7999 96.1133 48.9886 95.7443 49.3658C95.3752 49.7349 95.1907 50.2024 95.1907 50.7683C95.1907 51.3259 95.3752 51.7975 95.7443 52.183ZM110.554 50.7067L112.953 53.8438H111.44L109.349 51.002V53.8438H108.045V51.0266L105.953 53.8438H104.44L106.839 50.7067L104.563 47.6928H106.077L108.045 50.3869V47.6928H109.349V50.3992L111.317 47.6928H112.83L110.554 50.7067ZM119.358 51.3341H114.462C114.56 51.7934 114.782 52.1502 115.126 52.4044C115.479 52.6587 115.914 52.7858 116.43 52.7858C117.127 52.7858 117.656 52.5315 118.017 52.0231L119.112 52.6628C118.513 53.5567 117.615 54.0037 116.418 54.0037C115.426 54.0037 114.618 53.7002 113.995 53.0933C113.379 52.4782 113.072 51.7032 113.072 50.7683C113.072 49.8579 113.375 49.0911 113.982 48.4678C114.581 47.8445 115.36 47.5328 116.32 47.5328C117.214 47.5328 117.952 47.8486 118.534 48.4801C119.116 49.1116 119.407 49.8784 119.407 50.7806C119.407 50.9446 119.391 51.1291 119.358 51.3341ZM114.45 50.2516H118.067C117.976 49.7677 117.771 49.3945 117.451 49.1321C117.14 48.8696 116.758 48.7384 116.307 48.7384C115.815 48.7384 115.405 48.8737 115.077 49.1444C114.749 49.415 114.54 49.7841 114.45 50.2516ZM124.722 50.1409V47.6928H126.051V53.8438H124.722V51.3957H121.905V53.8438H120.577V47.6928H121.905V50.1409H124.722ZM130.496 54.0037C129.569 54.0037 128.794 53.692 128.171 53.0687C127.556 52.4372 127.248 51.6704 127.248 50.7683C127.248 49.8497 127.556 49.0829 128.171 48.4678C128.794 47.8445 129.569 47.5328 130.496 47.5328C131.094 47.5328 131.64 47.6764 132.132 47.9634C132.624 48.2504 132.993 48.6359 133.239 49.1198L132.095 49.7841C131.956 49.4888 131.742 49.2592 131.455 49.0952C131.176 48.923 130.853 48.8368 130.483 48.8368C129.942 48.8368 129.487 49.0214 129.118 49.3904C128.757 49.7677 128.577 50.227 128.577 50.7683C128.577 51.3095 128.757 51.7688 129.118 52.1461C129.487 52.5151 129.942 52.6997 130.483 52.6997C130.844 52.6997 131.168 52.6177 131.455 52.4536C131.751 52.2814 131.972 52.0477 132.12 51.7524L133.264 52.4044C133.001 52.8965 132.62 53.2861 132.12 53.5731C131.628 53.8602 131.086 54.0037 130.496 54.0037ZM136.893 50.7067L139.698 53.8438H138.111L135.589 51.002V53.8438H134.26V47.6928H135.589V50.4115L137.975 47.6928H139.599L136.893 50.7067ZM144.97 48.5662V47.6928H146.299V53.8438H144.97V52.958C144.47 53.6551 143.752 54.0037 142.817 54.0037C141.973 54.0037 141.251 53.692 140.652 53.0687C140.054 52.4454 139.754 51.6786 139.754 50.7683C139.754 49.8579 140.054 49.0911 140.652 48.4678C141.251 47.8445 141.973 47.5328 142.817 47.5328C143.752 47.5328 144.47 47.8773 144.97 48.5662ZM141.636 52.183C142.006 52.552 142.469 52.7366 143.027 52.7366C143.584 52.7366 144.048 52.552 144.417 52.183C144.786 51.8057 144.97 51.3341 144.97 50.7683C144.97 50.2024 144.786 49.7349 144.417 49.3658C144.048 48.9886 143.584 48.7999 143.027 48.7999C142.469 48.7999 142.006 48.9886 141.636 49.3658C141.267 49.7349 141.083 50.2024 141.083 50.7683C141.083 51.3259 141.267 51.7975 141.636 52.183ZM149.865 47.6928H152.608V53.8438H151.304V51.777H150.566L149.004 53.8438H147.442L149.102 51.654C148.676 51.5146 148.331 51.2685 148.069 50.9159C147.815 50.5632 147.688 50.1696 147.688 49.7349C147.688 49.169 147.889 48.6892 148.29 48.2956C148.692 47.8937 149.217 47.6928 149.865 47.6928ZM149.939 50.6329H151.304V48.8984H149.939C149.66 48.8984 149.43 48.9804 149.25 49.1444C149.078 49.3002 148.992 49.5093 148.992 49.7718C148.992 50.0342 149.078 50.2434 149.25 50.3992C149.43 50.555 149.66 50.6329 149.939 50.6329ZM161.487 50.6821C162.094 50.9692 162.397 51.4408 162.397 52.0969C162.397 52.6218 162.217 53.0441 161.856 53.364C161.503 53.6838 161.011 53.8438 160.38 53.8438H157.23V47.6928H160.133C160.757 47.6928 161.245 47.8486 161.597 48.1602C161.95 48.4719 162.126 48.8819 162.126 49.3904C162.126 49.9727 161.913 50.4033 161.487 50.6821ZM160.035 48.8245H158.497V50.1901H160.035C160.576 50.1901 160.847 49.9604 160.847 49.5011C160.847 49.0501 160.576 48.8245 160.035 48.8245ZM158.497 52.6874H160.256C160.814 52.6874 161.093 52.4454 161.093 51.9615C161.093 51.7483 161.019 51.5843 160.872 51.4695C160.724 51.3464 160.519 51.2849 160.256 51.2849H158.497V52.6874ZM169.419 51.3341H164.523C164.621 51.7934 164.843 52.1502 165.187 52.4044C165.54 52.6587 165.975 52.7858 166.491 52.7858C167.188 52.7858 167.717 52.5315 168.078 52.0231L169.173 52.6628C168.574 53.5567 167.676 54.0037 166.479 54.0037C165.487 54.0037 164.679 53.7002 164.055 53.0933C163.44 52.4782 163.133 51.7032 163.133 50.7683C163.133 49.8579 163.436 49.0911 164.043 48.4678C164.642 47.8445 165.421 47.5328 166.381 47.5328C167.275 47.5328 168.013 47.8486 168.595 48.4801C169.177 49.1116 169.468 49.8784 169.468 50.7806C169.468 50.9446 169.452 51.1291 169.419 51.3341ZM164.511 50.2516H168.127C168.037 49.7677 167.832 49.3945 167.512 49.1321C167.201 48.8696 166.819 48.7384 166.368 48.7384C165.876 48.7384 165.466 48.8737 165.138 49.1444C164.81 49.415 164.601 49.7841 164.511 50.2516ZM173.505 54.0037C172.578 54.0037 171.803 53.692 171.18 53.0687C170.564 52.4372 170.257 51.6704 170.257 50.7683C170.257 49.8497 170.564 49.0829 171.18 48.4678C171.803 47.8445 172.578 47.5328 173.505 47.5328C174.103 47.5328 174.649 47.6764 175.141 47.9634C175.633 48.2504 176.002 48.6359 176.248 49.1198L175.104 49.7841C174.965 49.4888 174.751 49.2592 174.464 49.0952C174.185 48.923 173.861 48.8368 173.492 48.8368C172.951 48.8368 172.496 49.0214 172.127 49.3904C171.766 49.7677 171.586 50.227 171.586 50.7683C171.586 51.3095 171.766 51.7688 172.127 52.1461C172.496 52.5151 172.951 52.6997 173.492 52.6997C173.853 52.6997 174.177 52.6177 174.464 52.4536C174.759 52.2814 174.981 52.0477 175.129 51.7524L176.273 52.4044C176.01 52.8965 175.629 53.2861 175.129 53.5731C174.636 53.8602 174.095 54.0037 173.505 54.0037ZM183.079 51.3341H178.183C178.281 51.7934 178.502 52.1502 178.847 52.4044C179.199 52.6587 179.634 52.7858 180.151 52.7858C180.848 52.7858 181.377 52.5315 181.738 52.0231L182.833 52.6628C182.234 53.5567 181.336 54.0037 180.139 54.0037C179.146 54.0037 178.338 53.7002 177.715 53.0933C177.1 52.4782 176.792 51.7032 176.792 50.7683C176.792 49.8579 177.096 49.0911 177.703 48.4678C178.301 47.8445 179.081 47.5328 180.04 47.5328C180.934 47.5328 181.672 47.8486 182.254 48.4801C182.837 49.1116 183.128 49.8784 183.128 50.7806C183.128 50.9446 183.112 51.1291 183.079 51.3341ZM178.17 50.2516H181.787C181.697 49.7677 181.492 49.3945 181.172 49.1321C180.86 48.8696 180.479 48.7384 180.028 48.7384C179.536 48.7384 179.126 48.8737 178.798 49.1444C178.47 49.415 178.26 49.7841 178.17 50.2516ZM188.443 50.1409V47.6928H189.771V53.8438H188.443V51.3957H185.626V53.8438H184.297V47.6928H185.626V50.1409H188.443ZM195.459 50.1409V47.6928H196.787V53.8438H195.459V51.3957H192.642V53.8438H191.313V47.6928H192.642V50.1409H195.459ZM200.346 47.6928H203.09V53.8438H201.786V51.777H201.048L199.485 53.8438H197.923L199.584 51.654C199.157 51.5146 198.813 51.2685 198.55 50.9159C198.296 50.5632 198.169 50.1696 198.169 49.7349C198.169 49.169 198.37 48.6892 198.772 48.2956C199.174 47.8937 199.699 47.6928 200.346 47.6928ZM200.42 50.6329H201.786V48.8984H200.42C200.141 48.8984 199.912 48.9804 199.731 49.1444C199.559 49.3002 199.473 49.5093 199.473 49.7718C199.473 50.0342 199.559 50.2434 199.731 50.3992C199.912 50.555 200.141 50.6329 200.42 50.6329ZM206.654 47.6928H209.397V53.8438H208.093V51.777H207.355L205.792 53.8438H204.23L205.891 51.654C205.464 51.5146 205.12 51.2685 204.858 50.9159C204.603 50.5632 204.476 50.1696 204.476 49.7349C204.476 49.169 204.677 48.6892 205.079 48.2956C205.481 47.8937 206.006 47.6928 206.654 47.6928ZM206.727 50.6329H208.093V48.8984H206.727C206.449 48.8984 206.219 48.9804 206.039 49.1444C205.866 49.3002 205.78 49.5093 205.78 49.7718C205.78 50.0342 205.866 50.2434 206.039 50.3992C206.219 50.555 206.449 50.6329 206.727 50.6329Z" fill="#151618"/>
<path d="M42.7487 49.1328L39.6732 52.2083L36.5977 49.1328" stroke="#357EFE" stroke-width="1.53775" stroke-linecap="round" stroke-linejoin="round"/>
</g>
<mask id="path-5-inside-1_9046_134857" fill="white">
<path d="M239.438 29H347.08V72.057H239.438V29Z"/>
</mask>
<path d="M239.438 29H347.08V72.057H239.438V29Z" fill="white"/>
<path d="M290.193 55.4102H284.522V54.303L287.524 51.2398C288.254 50.5099 288.619 49.8784 288.619 49.3453C288.619 48.9352 288.496 48.6113 288.249 48.3734C288.003 48.1356 287.684 48.0167 287.29 48.0167C286.568 48.0167 286.035 48.3734 285.691 49.0869L284.497 48.3857C284.76 47.8198 285.137 47.3893 285.629 47.094C286.121 46.7906 286.671 46.6388 287.278 46.6388C288.04 46.6388 288.688 46.8767 289.221 47.3524C289.763 47.8362 290.033 48.4841 290.033 49.2961C290.033 50.1654 289.545 51.1004 288.569 52.1009L286.626 54.0446H290.193V55.4102ZM290.692 47.5984L292.955 46.7988H294.186V55.4102H292.771V48.3119L291.036 48.804L290.692 47.5984ZM301.051 52.5438H302.035V53.8601H301.051V55.4102H299.624V53.8601H295.392V52.5438L298.357 46.7988H299.895L296.93 52.5438H299.624V50.3048H301.051V52.5438Z" fill="#151618"/>
<path d="M240.206 72.057V29H238.669V72.057H240.206Z" fill="#E8E8F1" mask="url(#path-5-inside-1_9046_134857)"/>
</g>
</g>
</g>
<defs>
<filter id="filter0_d_9046_134857" x="-6.36757" y="11.1304" width="378.735" height="90.7351" filterUnits="userSpaceOnUse" color-interpolation-filters="sRGB">
<feFlood flood-opacity="0" result="BackgroundImageFix"/>
<feColorMatrix in="SourceAlpha" type="matrix" values="0 0 0 0 0 0 0 0 0 0 0 0 0 0 0 0 0 0 127 0" result="hardAlpha"/>
<feOffset dy="6.49802"/>
<feGaussianBlur stdDeviation="12.1838"/>
<feColorMatrix type="matrix" values="0 0 0 0 0.491667 0 0 0 0 0.491667 0 0 0 0 0.491667 0 0 0 0.19 0"/>
<feBlend mode="normal" in2="BackgroundImageFix" result="effect1_dropShadow_9046_134857"/>
<feBlend mode="normal" in="SourceGraphic" in2="effect1_dropShadow_9046_134857" result="shape"/>
</filter>
<clipPath id="clip0_9046_134857">
<rect width="367" height="102" rx="8" fill="white"/>
</clipPath>
<clipPath id="clip1_9046_134857">
<path d="M18 37C18 32.5817 21.5817 29 26 29H340C344.418 29 348 32.5817 348 37V63C348 67.4183 344.418 71 340 71H26C21.5817 71 18 67.4183 18 63V37Z" fill="white"/>
</clipPath>
<clipPath id="clip2_9046_134857">
<rect width="221.436" height="43.057" fill="white" transform="translate(18 29)"/>
</clipPath>
</defs>
</svg>
