<svg class="svg-sprite" xmlns="http://www.w3.org/2000/svg">

    <symbol id="pin" viewBox="0 0 24 24">
            <path d="M6 10.2418C6 14.6161 9.92687 18.2335 11.665 19.6204L11.6657 19.621C11.9149 19.8198 12.0396 19.9193 12.2253 19.9703C12.3699 20.0099 12.5824 20.0099 12.7269 19.9703C12.9129 19.9192 13.0379 19.8196 13.2875 19.6204C15.0257 18.2335 18.9524 14.6161 18.9524 10.2417C18.9524 8.58633 18.2701 6.99873 17.0556 5.82817C15.8411 4.65761 14.1938 4 12.4762 4C10.7586 4 9.11136 4.6576 7.89684 5.82816C6.68231 6.99871 6 8.58636 6 10.2418Z" stroke="#357EFE" stroke-width="1.6" stroke-linecap="round" stroke-linejoin="round"/>
    </symbol>

    <symbol id="message" viewBox="0 0 24 24">
        <path fill="none" stroke="currentColor" stroke-linecap="round" stroke-linejoin="round" stroke-width="1.5"
              d="M8.508 18.068a7 7 0 1 0-2.576-2.576v.001a.928.928 0 0 1 .101.2.37.37 0 0 1 .013.13c-.003.048-.02.099-.053.199l-.002.004-.598 1.794h0c-.126.38-.19.57-.145.696a.39.39 0 0 0 .236.235c.127.046.317-.018.697-.145l1.794-.598h0a.88.88 0 0 1 .203-.054.374.374 0 0 1 .13.013.985.985 0 0 1 .2.101Z"/>
    </symbol>
    <symbol id="hour" viewBox="0 0 14 10">
            <path d="M6.81694 4.122V0H8.76094V9H6.81694V5.958C6.10894 6.222 5.35294 6.354 4.54894 6.354C3.40894 6.354 2.52094 6.078 1.88494 5.526C1.24894 4.962 0.930938 4.152 0.930938 3.096V0H2.87494V2.916C2.87494 3.996 3.51694 4.536 4.80094 4.536C5.53294 4.536 6.20494 4.398 6.81694 4.122ZM12.2005 6.516C12.5725 6.516 12.8905 6.648 13.1545 6.912C13.4185 7.176 13.5505 7.494 13.5505 7.866C13.5505 8.238 13.4185 8.556 13.1545 8.82C12.8905 9.084 12.5725 9.216 12.2005 9.216C11.8285 9.216 11.5105 9.084 11.2465 8.82C10.9825 8.556 10.8505 8.238 10.8505 7.866C10.8505 7.494 10.9765 7.176 11.2285 6.912C11.4925 6.648 11.8165 6.516 12.2005 6.516Z" fill="#151618"/>
    </symbol>

    <symbol id="time" viewBox="0 0 24 24">
        <path fill="currentColor"
              d="M12.735 8.313a.59.59 0 1 0-1.18 0v3.843c0 .324.166.626.441.799l3.177 2a.586.586 0 1 0 .622-.993l-2.614-1.627a.944.944 0 0 1-.446-.802v-3.22Z"/>
        <circle cx="12.5" cy="11.5" r="7.886" fill="none" stroke="currentColor" stroke-width="1.228"/>
    </symbol>

    <symbol id="star" viewBox="0 0 24 24">
        <path fill="currentColor"
              d="M11.438 2.348a.627.627 0 0 1 1.123 0l2.606 5.256a.626.626 0 0 0 .471.341l5.825.843a.623.623 0 0 1 .347 1.063l-4.215 4.091a.622.622 0 0 0-.18.552l.995 5.777a.626.626 0 0 1-.908.657l-5.21-2.727a.629.629 0 0 0-.583 0l-5.21 2.727a.626.626 0 0 1-.91-.657l.996-5.777a.622.622 0 0 0-.18-.552L2.19 9.852a.623.623 0 0 1 .347-1.064l5.825-.843a.626.626 0 0 0 .471-.341l2.605-5.256Z"/>
    </symbol>

    <symbol id="discount" viewBox="0 0 24 24">
        <g clip-path="url(#discount-clip-path-1)" fill="none">
            <path fill="#FF4242" fill-rule="evenodd"
                  d="M9.405 2.897a4 4 0 0 1 5.02-.136l.17.136.376.32a2 2 0 0 0 .96.45l.178.022.493.04a4 4 0 0 1 3.648 3.468l.02.2.04.494a2 2 0 0 0 .36.996l.11.142.323.376a4 4 0 0 1 .136 5.02l-.136.17-.321.376a2 2 0 0 0-.45.96l-.022.178-.04.493a4 4 0 0 1-3.467 3.648l-.201.021-.493.04a2 2 0 0 0-.996.36l-.142.111-.377.32a4 4 0 0 1-5.02.137l-.17-.136-.375-.321a2 2 0 0 0-.96-.45l-.178-.021-.493-.04a4 4 0 0 1-3.648-3.468l-.021-.2-.04-.494a2 2 0 0 0-.36-.996l-.111-.142-.321-.377a4 4 0 0 1-.136-5.02l.136-.169.32-.376a2 2 0 0 0 .45-.96l.022-.178.04-.493A4 4 0 0 1 7.197 3.75l.2-.021.494-.04a2 2 0 0 0 .996-.36l.142-.111.376-.32v-.001ZM14.5 13a1.5 1.5 0 1 0 0 3 1.5 1.5 0 0 0 0-3Zm-.207-4.707-6 6a1 1 0 1 0 1.414 1.414l6-6a1 1 0 0 0-1.414-1.414ZM9.5 8a1.5 1.5 0 1 0 0 3 1.5 1.5 0 0 0 0-3Z"
                  clip-rule="evenodd"/>
            <path fill="#FF4242" d="M7 8h10v9H7z"/>
            <circle cx="15.313" cy="15.438" r="1.125" stroke="#fff" stroke-width="1.125"/>
            <circle cx="9.688" cy="8.688" r="1.125" stroke="#fff" stroke-width="1.125"/>
            <path stroke="#fff" stroke-linecap="round" stroke-width="1.125" d="m8 16.329 8.204-8.204"/>
        </g>
        <defs>
            <clipPath id="discount-clip-path-1">
                <path fill="#fff" d="M0 0h24v24H0z"/>
            </clipPath>
        </defs>
    </symbol>

    <symbol id="sort" viewBox="0 0 24 24">
        <g fill="none" stroke="currentColor" stroke-linecap="round" stroke-width="1.5"
           clip-path="url(#sort-clip-path-1)">
            <path d="M2.75 18.25h5.5m-5.5-6h12.5m-12.5-6h18.5"/>
        </g>
        <defs>
            <clipPath id="sort-clip-path-1">
                <path fill="#fff" d="M0 0h24v24H0z"/>
            </clipPath>
        </defs>
    </symbol>

    <symbol id="filter2" viewBox="0 0 24 24">
            <path d="M20 6.33723V5.59998C20 5.03992 19.9996 4.75993 19.8906 4.54602C19.7948 4.35786 19.6425 4.20487 19.4544 4.10899C19.2405 4 18.9597 4 18.3996 4H5.59961C5.03956 4 4.75981 4 4.5459 4.10899C4.35774 4.20487 4.20487 4.35786 4.10899 4.54602C4 4.75993 4 5.03992 4 5.59998V6.33723C4 6.58182 4 6.70417 4.02763 6.81925C4.05213 6.92129 4.09263 7.0188 4.14746 7.10828C4.20928 7.20916 4.29574 7.29562 4.46859 7.46846L4.46875 7.46863L9.53149 12.5314C9.70444 12.7043 9.79068 12.7908 9.85252 12.8917C9.90735 12.9812 9.94816 13.0787 9.97266 13.1808C10 13.2947 10 13.4156 10 13.6553V13.6627V18.4111C10 19.2683 10 19.697 10.1805 19.9551C10.3382 20.1805 10.5814 20.3311 10.8535 20.3713C11.1651 20.4173 11.5487 20.2256 12.3154 19.8423L13.1154 19.4423C13.4365 19.2817 13.5968 19.2014 13.7141 19.0817C13.8178 18.9758 13.897 18.8481 13.9453 18.708C14 18.5495 14 18.3701 14 18.0111V13.6627C14 13.4181 14 13.2959 14.0276 13.1808C14.0521 13.0787 14.0926 12.9812 14.1475 12.8917C14.2093 12.7908 14.2957 12.7044 14.4685 12.5316L14.4688 12.5314L19.5315 7.46863C19.7044 7.29568 19.7907 7.20919 19.8525 7.10828C19.9073 7.0188 19.9482 6.92129 19.9727 6.81925C20 6.70534 20 6.58431 20 6.34468V6.33723Z" stroke="#232727" stroke-width="1.5" stroke-linecap="round" stroke-linejoin="round"/>
    </symbol>

    <symbol id="arrowDown" viewBox="0 0 24 24">
            <path d="M12 7V17M12 17L16 13M12 17L8 13" stroke-width="1.5" stroke-linecap="round" stroke-linejoin="round"/>
    </symbol>

    <symbol id="arrowTop" viewBox="0 0 24 24">
            <path d="M12 17L12 7M12 7L8 11M12 7L16 11" stroke-width="1.5" stroke-linecap="round" stroke-linejoin="round"/>
    </symbol>

    <symbol id="filter" viewBox="0 0 24 24">
        <path fill="none" stroke="currentColor" stroke-linecap="round" stroke-linejoin="round" stroke-width="1.5"
              d="M5.571 7.5a1.929 1.929 0 1 0 0-3.857 1.929 1.929 0 0 0 0 3.857ZM7.5 5.57h12.857m-8.358 8.358a1.929 1.929 0 1 0 0-3.858 1.929 1.929 0 0 0 0 3.858Z"/>
        <path fill="none" stroke="currentColor" stroke-linecap="round" stroke-linejoin="round" stroke-width="1.3"
              d="M3.643 12h6.428"/>
        <path fill="none" stroke="currentColor" stroke-linecap="round" stroke-linejoin="round" stroke-width="1.5"
              d="M13.928 12h6.428m-1.927 8.357a1.929 1.929 0 1 0 0-3.857 1.929 1.929 0 0 0 0 3.857ZM16.5 18.428H3.643"/>
    </symbol>

    <symbol id="singleArrowTop" viewBox="0 0 10 6">
        <path fill="none" stroke="currentColor" stroke-linecap="round" stroke-linejoin="round" stroke-width="2" d="M9 1 5 5 1 1"/>
    </symbol>

    <symbol id="premium" viewBox="0 0 24 24">
        <path fill="currentColor"
              d="m17.915 15.3-.242 1.44a.47.47 0 0 1-.46.36H7.786a.47.47 0 0 1-.46-.36l-.241-1.44h10.831Zm-5.433-8.4a.47.47 0 0 1 .39.18l3.03 3.844 2.464-1.62a.478.478 0 0 1 .53.004c.16.108.234.301.192.487l-.955 4.306H6.866l-.955-4.306a.463.463 0 0 1 .432-.568.477.477 0 0 1 .262.06l2.918 1.645 2.584-3.824a.474.474 0 0 1 .375-.208Z"/>
    </symbol>

    <symbol id="chevron-left" viewBox="0 0 24 24">
        <path fill="none" stroke="currentColor" stroke-linecap="round" stroke-linejoin="round" stroke-width="1.5"
              d="m15.5 19-7-7 7-7"/>
    </symbol>

    <symbol id="chevron-right" viewBox="0 0 24 24">
        <path fill="none" stroke="currentColor" stroke-linecap="round" stroke-linejoin="round" stroke-width="1.5"
              d="m8.5 5 7 7-7 7"/>
    </symbol>

    <symbol id="chevron-up" viewBox="0 0 24 24">
        <path fill="none" stroke="currentColor" stroke-linecap="round" stroke-linejoin="round" stroke-width="1.5"
              d="m15.5 19-7-7 7-7" transform="rotate(90,12,12)"/>
    </symbol>

    <symbol id="chevron-down" viewBox="0 0 24 24">
        <path fill="none" stroke="currentColor" stroke-linecap="round" stroke-linejoin="round" stroke-width="1.5"
              d="m15.5 19-7-7 7-7" transform="rotate(-90,12,12)"/>
    </symbol>

    <symbol id="chevron-right-sm" viewBox="0 0 24 24">
        <path fill="none" stroke="currentColor" stroke-linecap="round" stroke-linejoin="round" stroke-width="2"
              d="m10 8 4 4-4 4"/>
    </symbol>

    <symbol id="chevron-down-sm" viewBox="0 0 24 24">
        <path fill="none" stroke="currentColor" stroke-linecap="round" stroke-linejoin="round" stroke-width="2"
              d="M16 10L12 14L8 10"/>
    </symbol>


    <symbol id="close" viewBox="0 0 20 20">
        <path fill="none" stroke="currentColor" stroke-linecap="round" stroke-linejoin="round" stroke-width="3"
              d="M20 0 0 20M0 0l20 20"/>
    </symbol>

    <symbol id="close-alt" viewBox="0 0 24 24">
        <path fill="none" stroke="currentColor" stroke-linecap="round" stroke-linejoin="round" stroke-width="1.5"
              d="M18 6 6 18M6 6l12 12"/>
    </symbol>

    <symbol id="hide" viewBox="0 0 24 24">
        <path fill="none" stroke="currentColor" stroke-linecap="round" stroke-linejoin="round" stroke-width="1.5"
              d="m4.37 4 16.26 16m-3.557-3.244C15.7 17.485 14.145 18 12.5 18c-3.589 0-6.742-2.452-8.55-4.221-.478-.467-.717-.7-.869-1.159-.108-.327-.108-.914 0-1.24.152-.459.391-.693.87-1.16.911-.892 2.164-1.956 3.642-2.793m12.53 7.207c.338-.293.648-.582.926-.854.479-.467.718-.701.87-1.16.108-.326.108-.913 0-1.24-.152-.458-.39-.692-.868-1.159C19.242 8.452 16.088 6 12.5 6c-.343 0-.682.022-1.017.064m2.361 7.436c-.358.311-.829.5-1.344.5-1.123 0-2.033-.896-2.033-2 0-.54.217-1.03.57-1.389"/>
    </symbol>

    <symbol id="show" viewBox="0 0 24 24">
        <path fill="none" stroke="currentColor" stroke-linecap="round" stroke-linejoin="round" stroke-width="1.5"
              d="M3.95 13.779C5.757 15.548 8.911 18 12.5 18c3.588 0 6.742-2.452 8.55-4.221h.001c.477-.467.716-.7.868-1.159.108-.327.108-.913 0-1.24-.152-.458-.39-.692-.868-1.158h0C19.242 8.451 16.088 6 12.5 6c-3.59 0-6.743 2.452-8.552 4.221-.477.467-.716.7-.868 1.159-.108.327-.108.913 0 1.24.152.459.39.692.868 1.159h0Z"/>
        <circle fill="none" stroke="currentColor" stroke-linecap="round" stroke-linejoin="round" stroke-width="1.5"
                cx="12.5" cy="12" r="1.75"/>
    </symbol>

    <symbol id="check" viewBox="0 0 14 14">
        <path fill="none" stroke="currentColor" stroke-linecap="round" stroke-linejoin="round" stroke-width="1.5"
              d="M11.667 3.5 5.25 9.917 2.333 7"/>
    </symbol>

    <symbol id="nav" viewBox="0 0 24 24">
        <path fill="none" stroke="currentColor" stroke-linecap="round" stroke-linejoin="round" stroke-width="1.5"
              d="M10 6H4M20 12H4M14 18H4"/>
    </symbol>

    <symbol id="people" viewBox="0 0 24 24">
        <path fill="currentColor"
              d="M5.641 6.869a3.869 3.869 0 1 1 7.737 0 3.869 3.869 0 0 1-7.737 0ZM9.51 4.365a2.503 2.503 0 1 0 0 5.007 2.503 2.503 0 0 0 0-5.007ZM15.118 3.786a.683.683 0 0 1 .937-.233 3.867 3.867 0 0 1 0 6.631.683.683 0 0 1-.704-1.17 2.502 2.502 0 0 0 1.213-2.145c0-.91-.485-1.707-1.213-2.146a.683.683 0 0 1-.233-.937ZM8.478 13.013h2.063c.994 0 1.782 0 2.417.052.65.053 1.199.163 1.7.419a4.324 4.324 0 0 1 1.89 1.89c.256.501.366 1.05.42 1.7.051.635.051 1.423.051 2.417v.576a.683.683 0 0 1-.682.683H2.683A.683.683 0 0 1 2 20.067v-.576c0-.994 0-1.782.052-2.417.053-.65.164-1.199.42-1.7a4.324 4.324 0 0 1 1.889-1.89c.502-.256 1.051-.366 1.7-.42.635-.051 1.423-.051 2.417-.051ZM4.981 14.7a2.958 2.958 0 0 0-1.293 1.292c-.141.277-.23.627-.275 1.192-.045.548-.047 1.24-.048 2.2h12.289c0-.96-.003-1.652-.047-2.2-.047-.565-.134-.915-.276-1.192A2.958 2.958 0 0 0 14.04 14.7m0 0c-.278-.14-.627-.228-1.192-.275-.573-.046-1.305-.047-2.336-.047H8.508c-1.03 0-1.763 0-2.335.047-.565.047-.915.134-1.192.275M18.291 13.782a.683.683 0 0 1 .919-.298 4.324 4.324 0 0 1 1.89 1.89c.255.501.365 1.05.418 1.7.052.635.052 1.423.052 2.417v.576a.683.683 0 0 1-1.365 0v-.546c0-1.031 0-1.763-.047-2.336-.047-.565-.134-.915-.275-1.192m-1.592-2.21a.683.683 0 0 0 .299.917l-.299-.918Zm.299.917a2.959 2.959 0 0 1 1.293 1.293"/>
        <path fill="currentColor" d="m19.357 15.263-1.066-1.48.299.917c.286.146.545.337.767.563Z"/>
    </symbol>

    <symbol id="bag" viewBox="0 0 24 24">
        <g stroke="currentColor" stroke-linecap="round" stroke-linejoin="round" stroke-width="1.5"
           clip-path="url(#bag-path-a)">
            <path fill="none" d="M6 2 3 6v14a2 2 0 0 0 2 2h14a2 2 0 0 0 2-2V6l-3-4H6ZM3 6h18"/>
            <path fill="none" d="M16 10a4 4 0 1 1-8 0"/>
        </g>
        <defs>
            <clipPath id="bag-path-a">
                <path fill="#fff" d="M0 0h24v24H0z"/>
            </clipPath>
        </defs>
    </symbol>

    <symbol id="category" viewBox="0 0 24 24">
        <path fill="none" stroke="currentColor" stroke-linecap="round" stroke-linejoin="round" stroke-width="1.5"
              d="M8.23 4H4.309C3.585 4 3 4.585 3 5.308V9.23c0 .722.585 1.308 1.308 1.308H8.23c.722 0 1.308-.586 1.308-1.308V5.308C9.539 4.585 8.953 4 8.23 4ZM18.692 4H14.77c-.722 0-1.308.585-1.308 1.308V9.23c0 .722.586 1.308 1.308 1.308h3.923c.723 0 1.308-.586 1.308-1.308V5.308C20 4.585 19.415 4 18.692 4ZM8.23 14.46H4.309C3.585 14.46 3 15.047 3 15.77v3.923C3 20.414 3.585 21 4.308 21H8.23c.722 0 1.308-.586 1.308-1.308v-3.923c0-.723-.586-1.308-1.308-1.308ZM18.693 14.46H14.77c-.723 0-1.308.586-1.308 1.309v3.923c0 .722.585 1.308 1.308 1.308h3.923c.722 0 1.307-.586 1.307-1.308v-3.923c0-.723-.585-1.308-1.307-1.308Z"/>
    </symbol>

    <symbol id="tool" viewBox="0 0 24 24">
        <path fill="none" stroke="currentColor" stroke-linecap="round" stroke-linejoin="round" stroke-width="1.5"
              d="M14.7 6.3a1 1 0 0 0 0 1.4l1.6 1.6a1 1 0 0 0 1.4 0l3.77-3.77a6 6 0 0 1-7.94 7.94l-6.91 6.91a2.121 2.121 0 0 1-3-3l6.91-6.91a6 6 0 0 1 7.94-7.94l-3.76 3.76-.01.01Z"/>
    </symbol>

    <symbol id="book" viewBox="0 0 24 24">
        <path fill="none" stroke="currentColor" stroke-linecap="round" stroke-linejoin="round" stroke-width="1.5"
              d="M6 19c0-.796.23-1.559.64-2.121.41-.563.967-.879 1.548-.879H20"/>
        <path fill="none" stroke="currentColor" stroke-linecap="round" stroke-linejoin="round" stroke-width="1.5"
              d="M8.188 3H20v18H8.187c-.58 0-1.136-.237-1.546-.659A2.283 2.283 0 0 1 6 18.75V5.25c0-.597.23-1.169.64-1.591C7.05 3.237 7.608 3 8.189 3v0Z"/>
    </symbol>

    <symbol id="help" viewBox="0 0 24 24">
        <path fill="none" stroke="currentColor" stroke-linecap="round" stroke-linejoin="round" stroke-width="1.5"
              d="M12 21a9 9 0 1 0 0-18 9 9 0 0 0 0 18Z"/>
        <path fill="none" stroke="currentColor" stroke-linecap="round" stroke-linejoin="round" stroke-width="1.5"
              d="M9.3 9.303a2.718 2.718 0 0 1 1.213-1.431 2.85 2.85 0 0 1 1.878-.333 2.799 2.799 0 0 1 1.656.921c.422.488.654 1.105.653 1.742 0 1.799-2.779 2.698-2.779 2.698M12 16.5h.009"/>
    </symbol>

    <symbol id="support" viewBox="0 0 24 24">
        <path fill="none" stroke="currentColor" stroke-linecap="round" stroke-linejoin="round" stroke-width="1.5" d="M16 8h4c.5523 0 1 .4477 1 1v11l-3.3335-2.7692A.9994.9994 0 0 0 17.0278 17H9c-.5523 0-1-.4477-1-1v-3m7-9c.5523 0 1 .4477 1 1v7c0 .5523-.4477 1-1 1H6.9722a.9994.9994 0 0 0-.6387.2308L3 16V5c0-.5523.4477-1 1-1h11Z"/>
    </symbol>

    <symbol id="edit" viewBox="0 0 24 24">
        <g clip-path="url(#edit-path-a)" fill="none">
            <path stroke="currentColor" stroke-linecap="round" stroke-linejoin="round" stroke-width="1.5"
                  d="M4 16v4h4L18.869 9.13c.396-.396.594-.594.668-.822a1 1 0 0 0 0-.618c-.074-.228-.272-.427-.668-.823L17.13 5.131h0c-.396-.396-.594-.594-.822-.668a1 1 0 0 0-.618 0c-.228.074-.426.272-.822.668L4 16Z"/>
        </g>
        <defs>
            <clipPath id="edit-path-a">
                <path fill="#fff" d="M0 0h24v24H0z"/>
            </clipPath>
        </defs>
    </symbol>

    <symbol id="note" viewBox="0 0 20 20">
        <circle cx="10" cy="10" r="10" fill="currentColor"/>
        <path fill="#fff"
              d="M15.592 6.008a.833.833 0 0 0-1.184 0L8.2 12.225 5.592 9.608a.852.852 0 0 0-1.184 1.225l3.2 3.2a.833.833 0 0 0 1.184 0l6.8-6.8a.834.834 0 0 0 0-1.225Z"/>
    </symbol>

    <symbol id="rouble" viewBox="0 0 24 24">
        <path fill="currentColor" d="M13.714 13.333A5.486 5.486 0 0 0 19.334 8a5.487 5.487 0 0 0-5.62-5.333H8.001a.667.667 0 0 0-.667.666V12H6.001a.667.667 0 0 0 0 1.333h1.333v1.334H6.001A.666.666 0 1 0 6 16h1.333v4.667a.667.667 0 1 0 1.333 0V16h6a.667.667 0 1 0 0-1.333h-6v-1.334h5.047ZM8.667 4h5.047a4.16 4.16 0 0 1 4.287 4 4.154 4.154 0 0 1-4.287 4H8.667V4Z"/>
    </symbol>

    <symbol id="percent" viewBox="0 0 24 24">
        <path fill="none" stroke="currentColor" stroke-linecap="round" stroke-linejoin="round" stroke-width="1.5" d="M18 7 6 19M7 10a2 2 0 1 0 0-4 2 2 0 0 0 0 4ZM17 20a2 2 0 1 0 0-4 2 2 0 0 0 0 4Z"/>
    </symbol>

    <symbol id="round-add" viewBox="0 0 24 24">
        <circle fill="none" cx="12" cy="12" r="9.25" stroke="currentColor" stroke-width="1.5"/>
        <path fill="none" stroke="currentColor" stroke-linecap="round" stroke-width="1.5" d="M8 12h8m-4-4v8"/>
    </symbol>

    <symbol id="round-remove" viewBox="0 0 24 24">
        <circle fill="none" cx="12" cy="12" r="9.25" stroke="currentColor" stroke-width="1.5"/>
        <path fill="none" stroke="currentColor" stroke-linecap="round" stroke-width="1.5" d="M7.75 12.25h8.5"/>
    </symbol>

    <symbol id="round-warning" viewBox="0 0 18 18">
        <path fill="currentColor" fill-rule="evenodd" d="M9 9.8889V5.4444 9.889Z" clip-rule="evenodd"/><path stroke="#FF4242" stroke-linecap="round" stroke-linejoin="round" stroke-width="1.5" d="M9 9.8889V5.4444M9 1c4.4183 0 8 3.5817 8 8s-3.5817 8-8 8-8-3.5817-8-8 3.5817-8 8-8Zm-.0443 11.5556v-.0889h.0886v.0889h-.0886Z"/>
    </symbol>

    <symbol id="basket" viewBox="0 0 16 24">
        <path d="M1 3.66667H15M13.25 3.66667V14.1556C13.25 15.1512 13.2502 15.6491 13.0594 16.0294C12.8917 16.3639 12.6236 16.6358 12.2943 16.8062C11.92 17 11.4303 17 10.4502 17H5.55017C4.57008 17 4.07967 17 3.70532 16.8062C3.37604 16.6358 3.10852 16.3639 2.94074 16.0294C2.75 15.6491 2.75 15.1512 2.75 14.1556V3.66667H13.25ZM11.5 3.66667H4.5C4.5 2.83833 4.5 2.42414 4.63321 2.09744C4.81083 1.66183 5.15128 1.31576 5.58008 1.13533C5.90168 1 6.3096 1 7.125 1H8.875C9.6904 1 10.0981 1 10.4197 1.13533C10.8485 1.31576 11.1891 1.66183 11.3667 2.09744C11.4999 2.42414 11.5 2.83833 11.5 3.66667Z" fill="none" stroke="#357EFE" stroke-width="1.5" stroke-linecap="round" stroke-linejoin="round"/>
    </symbol>

    <symbol id="error" viewBox="0 0 24 24">
        <path fill="currentColor"
              d="m4.379 15.2.65.375-.65-.375Zm4.85-8.4-.65-.375.65.375Zm5.543 0 .649-.375-.65.375Zm4.85 8.4.649-.375-.65.375ZM11.185 4.173l.305.685-.305-.685Zm1.627 0-.305.685.306-.685ZM3.896 19.618l-.44.607.44-.607Zm-.813-1.409.746-.078-.746.078Zm17.02 1.41.441.606-.44-.607Zm.814-1.41.746.079-.746-.079ZM12.05 16h.75a.75.75 0 0 0-.75-.75V16Zm0 .1v.75a.75.75 0 0 0 .75-.75h-.75Zm-.1 0h-.75c0 .414.336.75.75.75v-.75Zm0-.1v-.75a.75.75 0 0 0-.75.75h.75Zm.8-7a.75.75 0 0 0-1.5 0h1.5Zm-1.5 4a.75.75 0 0 0 1.5 0h-1.5Zm5.6 6.25h-9.7v1.5h9.7v-1.5ZM5.028 15.575l4.85-8.4-1.299-.75-4.85 8.4 1.3.75Zm9.094-8.4 4.85 8.4 1.299-.75-4.85-8.4-1.299.75Zm-4.244 0c.462-.8.784-1.355 1.06-1.747.28-.396.445-.522.553-.57l-.61-1.37c-.485.216-.844.616-1.168 1.074-.326.462-.687 1.088-1.134 1.863l1.3.75Zm5.543-.75c-.447-.775-.808-1.401-1.134-1.863-.324-.458-.683-.858-1.169-1.074l-.61 1.37c.109.048.274.174.554.57.277.392.598.947 1.06 1.747l1.299-.75Zm-3.93-1.567a1.25 1.25 0 0 1 1.017 0l.61-1.37a2.75 2.75 0 0 0-2.237 0l.61 1.37ZM7.151 19.25c-.925 0-1.566 0-2.044-.044-.482-.045-.674-.125-.77-.195l-.881 1.214c.43.312.955.423 1.514.474.563.052 1.286.051 2.18.051v-1.5Zm-3.422-4.425c-.447.775-.809 1.4-1.046 1.914-.235.51-.402 1.02-.346 1.549l1.492-.157c-.013-.118.014-.325.216-.764.201-.436.521-.992.983-1.792l-1.299-.75Zm.608 4.186a1.25 1.25 0 0 1-.508-.88l-1.492.157a2.75 2.75 0 0 0 1.119 1.937l.881-1.214Zm12.513 1.74c.894 0 1.617 0 2.18-.052.56-.051 1.084-.162 1.514-.474l-.881-1.214c-.096.07-.288.15-.77.195-.478.043-1.119.044-2.043.044v1.5Zm2.122-5.176c.462.8.782 1.356.983 1.792.202.44.229.646.216.764l1.492.157c.056-.53-.111-1.04-.346-1.55-.237-.512-.599-1.138-1.046-1.913l-1.3.75Zm1.572 4.65a2.75 2.75 0 0 0 1.12-1.938l-1.493-.156a1.25 1.25 0 0 1-.508.88l.881 1.214ZM11.3 16v.1h1.5V16h-1.5Zm.75-.65h-.1v1.5h.1v-1.5Zm.65.75V16h-1.5v.1h1.5Zm-.75.65h.1v-1.5h-.1v1.5ZM11.25 9v4h1.5V9h-1.5Z"/>
    </symbol>

    <symbol id="home" viewBox="0 0 24 24">
        <path fill="none" stroke="currentColor" stroke-linecap="round" stroke-linejoin="round" stroke-width="1.5"
              d="M18 15.614V11.2v0c0-.425 0-.637-.053-.835a1.574 1.574 0 0 0-.227-.491c-.118-.17-.281-.31-.608-.59l-3.9-3.34c-.606-.52-.91-.78-1.251-.879a1.66 1.66 0 0 0-.922 0c-.341.1-.644.359-1.25.878h-.001l-3.9 3.342h0c-.327.28-.49.42-.608.589-.103.15-.18.316-.227.491C5 10.563 5 10.775 5 11.2v4.414c0 .74 0 1.111.124 1.404.165.39.481.7.88.86.298.122.677.122 1.434.122.757 0 1.135 0 1.434-.121.398-.162.714-.471.88-.861.123-.293.123-.663.123-1.405v-.795c0-.879.727-1.59 1.625-1.59s1.625.711 1.625 1.59v.796c0 .74 0 1.111.124 1.404.165.39.481.7.88.86.298.122.677.122 1.434.122.757 0 1.135 0 1.434-.121.398-.162.714-.471.88-.861.123-.293.123-.663.123-1.404Z"/>
    </symbol>

    <symbol id="google-color" viewBox="0 0 28 28">
        <path fill="#4285F4"
              d="M26.251 14.272c0-1.007-.083-1.742-.264-2.504H14.251v4.546h6.889c-.139 1.13-.889 2.83-2.556 3.974l-.023.152 3.71 2.817.258.026c2.361-2.137 3.722-5.282 3.722-9.011Z"/>
        <path fill="#34A853"
              d="M14.25 26.25c3.375 0 6.209-1.089 8.278-2.967l-3.944-2.995c-1.056.722-2.473 1.225-4.334 1.225a7.51 7.51 0 0 1-7.11-5.09l-.147.012-3.859 2.927-.05.137C5.139 23.5 9.36 26.25 14.25 26.25Z"/>
        <path fill="#FBBC05"
              d="M7.14 16.423A7.405 7.405 0 0 1 6.723 14c0-.844.153-1.66.403-2.423l-.007-.162L3.212 8.44l-.127.06A12.062 12.062 0 0 0 1.75 14c0 1.973.486 3.838 1.334 5.499l4.055-3.076Z"/>
        <path fill="#EB4335"
              d="M14.25 6.487c2.348 0 3.931.993 4.834 1.824l3.527-3.376c-2.166-1.974-4.986-3.185-8.36-3.185-4.89 0-9.112 2.75-11.167 6.751l4.041 3.076c1.014-2.953 3.82-5.09 7.126-5.09Z"/>
    </symbol>

    <symbol id="apple-color" viewBox="0 0 25 28">
        <path fill="#232727"
              d="M23.734 9.55c-.134.078-3.317 1.724-3.317 5.374.15 4.162 4.017 5.621 4.083 5.621-.066.078-.584 1.988-2.116 3.991C21.167 26.261 19.817 28 17.767 28c-1.95 0-2.65-1.15-4.9-1.15-2.416 0-3.1 1.15-4.95 1.15-2.05 0-3.5-1.832-4.782-3.541C1.468 22.223.052 18.713.002 15.343c-.034-1.786.334-3.54 1.266-5.032 1.317-2.081 3.667-3.494 6.233-3.54 1.966-.063 3.716 1.257 4.916 1.257 1.15 0 3.3-1.258 5.733-1.258 1.05.001 3.85.296 5.584 2.78ZM12.25 6.414c-.35-1.631.616-3.262 1.516-4.302C14.917.854 16.734 0 18.3 0c.1 1.63-.534 3.23-1.666 4.395-1.017 1.258-2.767 2.205-4.383 2.019Z"/>
    </symbol>

    <symbol id="vk-color" viewBox="0 0 28 17">
        <path fill="#7294C7"
              d="M27.74 14.594c0-.111-.111-.111-.111-.223-.446-.891-1.449-2.005-2.786-3.23-.668-.557-1.002-1.003-1.225-1.226-.334-.446-.334-.78-.223-1.225.111-.335.557-.892 1.337-1.894.446-.557.668-.892 1.003-1.226 1.67-2.228 2.45-3.676 2.228-4.345l-.112-.111c-.111-.111-.223-.223-.445-.223-.223-.111-.557-.111-.891 0H21.5l-.111.112c-.112.111-.112.111-.112.222-.445 1.226-1.002 2.229-1.56 3.343-.334.557-.668 1.114-1.002 1.56-.334.445-.557.78-.78 1.002-.223.223-.445.334-.557.557-.111.111-.334.223-.334.111-.111 0-.223 0-.223-.111l-.334-.334c-.111-.112-.111-.334-.223-.557V1.225c0-.111-.111-.334-.111-.445l-.335-.334c-.11-.112-.334-.112-.445-.223A9.991 9.991 0 0 0 13.369 0c-1.783 0-3.008.111-3.454.334-.223.112-.446.223-.557.446-.223.223-.223.334-.111.334.557.111 1.002.334 1.225.668l.112.223c.11.112.11.335.222.669s.112.668.112 1.114V5.57c0 .557-.112.891-.112 1.226 0 .334-.111.557-.222.668-.112.223-.112.334-.223.334 0 0 0 .112-.112.112-.111 0-.223.111-.445.111-.112 0-.335-.111-.446-.223a1.342 1.342 0 0 1-.557-.557c-.223-.222-.446-.557-.668-1.002-.223-.446-.557-.892-.78-1.56l-.223-.446a15.76 15.76 0 0 1-.557-1.225c-.223-.557-.446-1.003-.669-1.56a1.538 1.538 0 0 0-.334-.445H5.46S5.347.89 5.236.89 5.013.78 4.902.78H.892c-.446 0-.67.111-.78.223L0 1.114v.223c0 .111 0 .223.111.445.557 1.337 1.226 2.674 1.894 4.011.669 1.226 1.337 2.34 1.783 3.12.557.78 1.002 1.56 1.56 2.227.556.669.89 1.115 1.002 1.337l.446.446.334.334c.223.223.557.557 1.003.892.445.334 1.002.668 1.56 1.002.556.334 1.225.557 1.893.78.78.223 1.448.334 2.117.223h1.67c.335 0 .558-.112.78-.335l.112-.11c0-.112.112-.112.112-.224v-.445c0-.446 0-.78.111-1.114.111-.335.111-.557.223-.78.111-.223.223-.334.334-.446l.223-.223h.111c.223-.111.557 0 .78.223.334.223.669.557.891.891.223.335.557.669 1.003 1.115.446.445.78.78 1.003.89l.334.223c.223.112.445.223.78.335.334.111.557.111.78.111l3.787-.111c.335 0 .669-.112.892-.223.222-.111.334-.223.334-.446v-.445c-.223-.223-.223-.334-.223-.446Z"/>
    </symbol>

    <symbol id="vk" viewBox="-0.5 0 24 14">
        <path d="M12.4825 14C4.96596 14 0.678638 8.74474 0.5 0H4.26515C4.38882 6.41842 7.16459 9.13714 9.36321 9.6977V0H12.9085V5.53553C15.0796 5.2973 17.3607 2.77477 18.1302 0H21.6755C21.3855 1.43908 20.8075 2.80165 19.9776 4.0025C19.1477 5.20335 18.0837 6.21663 16.8523 6.97898C18.2269 7.67555 19.441 8.6615 20.4145 9.87175C21.388 11.082 22.0988 12.489 22.5 14H18.5974C18.2373 12.6876 17.5054 11.5128 16.4934 10.6228C15.4814 9.73284 14.2343 9.16727 12.9085 8.997V14H12.4825Z"
              fill="currentColor"/>
    </symbol>

    <symbol id="youtube" viewBox="-0.5 0 24 16">
        <path fill-rule="evenodd" clip-rule="evenodd"
              d="M2.76249 15.0568C2.37023 14.9408 2.01232 14.7343 1.71896 14.4549C1.4256 14.1754 1.2054 13.8312 1.07695 13.4512C0.342921 11.4874 0.125431 3.28693 1.53911 1.66807C2.00961 1.14145 2.67389 0.817218 3.38777 0.765759C7.18024 0.36768 18.8975 0.420757 20.2432 0.898453C20.6217 1.01832 20.9675 1.22026 21.2547 1.48912C21.5419 1.75799 21.763 2.08681 21.9015 2.45096C22.7035 4.48117 22.7307 11.8589 21.7928 13.8095C21.544 14.3173 21.1275 14.7285 20.6102 14.9772C19.1965 15.6672 4.63833 15.6539 2.76249 15.0568ZM8.78422 11.2087L15.5808 7.75869L8.78422 4.28213V11.2087Z"
              fill="currentColor"/>
    </symbol>

    <symbol id="telegram" viewBox="1 1 24 24">
        <path d="M18.92 5.592 4.747 11.294c-.967.405-.962.968-.177 1.22l3.638 1.184 8.42-5.542c.398-.253.761-.117.462.16l-6.82 6.423h-.002.001l-.25 3.914c.367 0 .53-.176.735-.384l1.768-1.793 3.676 2.833c.678.39 1.165.19 1.334-.655l2.413-11.866c.247-1.033-.378-1.501-1.025-1.196Z"
              fill="currentColor"/>
    </symbol>

    <symbol id="telegramBlue" viewBox="1 1 30 28" width="30" height="28">
            <path d="M30 0.950882L25.2546 25.7246C25.2546 25.7246 24.5906 27.4423 22.7667 26.6185L11.8178 17.9251L11.767 17.8995C13.2459 16.5243 24.7143 5.84631 25.2155 5.3623C25.9915 4.61268 25.5098 4.16641 24.6089 4.73267L7.66862 15.8731L1.13311 13.5959C1.13311 13.5959 0.104617 13.2171 0.00567291 12.3933C-0.0945729 11.5682 1.16696 11.1219 1.16696 11.1219L27.8102 0.298338C27.8102 0.298338 30 -0.698005 30 0.950882Z" fill="#357EFE"/>
    </symbol>

    <symbol id="instagramBlue" viewBox="1 1 24 24">
            <path d="M15 0.9375C18.8208 0.9375 19.2975 0.951562 20.7966 1.02187C22.2942 1.09219 23.3137 1.32703 24.2109 1.67578C25.1391 2.03297 25.9209 2.51672 26.7028 3.29719C27.4179 4.00017 27.9712 4.85052 28.3242 5.78906C28.6716 6.68484 28.9078 7.70578 28.9781 9.20344C29.0442 10.7025 29.0625 11.1792 29.0625 15C29.0625 18.8208 29.0484 19.2975 28.9781 20.7966C28.9078 22.2942 28.6716 23.3137 28.3242 24.2109C27.9722 25.15 27.4188 26.0006 26.7028 26.7028C25.9996 27.4176 25.1493 27.9709 24.2109 28.3242C23.3152 28.6716 22.2942 28.9078 20.7966 28.9781C19.2975 29.0442 18.8208 29.0625 15 29.0625C11.1792 29.0625 10.7025 29.0484 9.20344 28.9781C7.70578 28.9078 6.68625 28.6716 5.78906 28.3242C4.85015 27.9719 3.99965 27.4185 3.29719 26.7028C2.58198 25.9999 2.02865 25.1496 1.67578 24.2109C1.32703 23.3152 1.09219 22.2942 1.02187 20.7966C0.955781 19.2975 0.9375 18.8208 0.9375 15C0.9375 11.1792 0.951562 10.7025 1.02187 9.20344C1.09219 7.70437 1.32703 6.68625 1.67578 5.78906C2.02768 4.84994 2.58113 3.99936 3.29719 3.29719C3.99985 2.58173 4.85029 2.02837 5.78906 1.67578C6.68625 1.32703 7.70437 1.09219 9.20344 1.02187C10.7025 0.955781 11.1792 0.9375 15 0.9375ZM15 7.96875C13.1352 7.96875 11.3468 8.70954 10.0282 10.0282C8.70954 11.3468 7.96875 13.1352 7.96875 15C7.96875 16.8648 8.70954 18.6532 10.0282 19.9718C11.3468 21.2905 13.1352 22.0312 15 22.0312C16.8648 22.0313 18.6532 21.2905 19.9718 19.9718C21.2905 18.6532 22.0313 16.8648 22.0312 15C22.0313 13.1352 21.2905 11.3468 19.9718 10.0282C18.6532 8.70954 16.8648 7.96875 15 7.96875V7.96875ZM24.1406 7.61719C24.1406 7.15099 23.9554 6.70388 23.6258 6.37423C23.2961 6.04457 22.849 5.85938 22.3828 5.85938C21.9166 5.85938 21.4695 6.04457 21.1399 6.37423C20.8102 6.70388 20.625 7.15099 20.625 7.61719C20.625 8.08339 20.8102 8.53049 21.1399 8.86015C21.4695 9.1898 21.9166 9.375 22.3828 9.375C22.849 9.375 23.2961 9.1898 23.6258 8.86015C23.9554 8.53049 24.1406 8.08339 24.1406 7.61719ZM15 10.7812C16.1189 10.7812 17.1919 11.2257 17.9831 12.0169C18.7743 12.8081 19.2188 13.8811 19.2188 15C19.2188 16.1189 18.7743 17.1919 17.9831 17.9831C17.1919 18.7743 16.1189 19.2188 15 19.2188C13.8811 19.2188 12.8081 18.7743 12.0169 17.9831C11.2257 17.1919 10.7812 16.1189 10.7812 15C10.7812 13.8811 11.2257 12.8081 12.0169 12.0169C12.8081 11.2257 13.8811 10.7813 15 10.7812V10.7812Z" fill="#357EFE"/>
    </symbol>

    <symbol id="mailBlue" viewBox="1 1 24 24">
            <path d="M19.25 0.375H6.75C3 0.375 0.5 2.25 0.5 6.625V15.375C0.5 19.75 3 21.625 6.75 21.625H19.25C23 21.625 25.5 19.75 25.5 15.375V6.625C25.5 2.25 23 0.375 19.25 0.375ZM19.8375 7.9875L15.925 11.1125C15.1 11.775 14.05 12.1 13 12.1C11.95 12.1 10.8875 11.775 10.075 11.1125L6.1625 7.9875C5.7625 7.6625 5.7 7.0625 6.0125 6.6625C6.3375 6.2625 6.925 6.1875 7.325 6.5125L11.2375 9.6375C12.1875 10.4 13.8 10.4 14.75 9.6375L18.6625 6.5125C19.0625 6.1875 19.6625 6.25 19.975 6.6625C20.3 7.0625 20.2375 7.6625 19.8375 7.9875Z" fill="#357EFE"/>
    </symbol>

    <symbol id="more" viewBox="0 0 24 24">
        <circle cx="5.7211" cy="12.6" r="1.6" fill="currentColor"/><circle cx="12.1195" cy="12.6" r="1.6" fill="currentColor"/><circle cx="18.5219" cy="12.6" r="1.6" fill="currentColor"/>
    </symbol>

    <symbol id="like" viewBox="0 0 22 16">
        <path fill="currentColor" stroke-width="1.5" d="m11.3706 1.5203-.5747.4562.5747-.4562c-.7006-.8826-2.0406-.8826-2.7412 0l-7.4556 9.3916C.2633 12.0588 1.08 13.75 2.5444 13.75h14.9112c1.4644 0 2.2811-1.6912 1.3706-2.8381l-7.4556-9.3916Z"/>
    </symbol>

    <symbol id="mail" viewBox="0 0 15 10">
            <path d="M14.082 1.69042L10.2939 5.47852L13.9886 9.17588C14.1004 8.98357 14.1693 8.76312 14.1693 8.52505V2.1481C14.1693 1.98648 14.136 1.83333 14.082 1.69042ZM12.8649 0.84375H2.14029C1.92344 0.84375 1.7219 0.901979 1.5418 0.996016L7.23594 6.6901C7.40115 6.85531 7.6881 6.85531 7.85042 6.6901L13.5178 1.02552C13.325 0.912943 13.1039 0.84375 12.8649 0.84375ZM0.945339 1.62852C0.875703 1.78794 0.835938 1.96326 0.835938 2.1481V8.52505C0.835938 8.75935 0.902943 8.97628 1.01154 9.16651L4.74609 5.42927L0.945339 1.62852Z" fill="white"/>
            <path d="M9.67896 6.09615L8.47026 7.30773C7.96255 7.80969 7.13995 7.81792 6.62388 7.30773L5.36591 6.04688L1.67188 9.73828C1.81836 9.79536 1.9763 9.82961 2.14273 9.82961H12.8674C13.0297 9.82961 13.1837 9.79617 13.3272 9.74169L9.67896 6.09615Z" fill="white"/>
    </symbol>

    <symbol id="dislike" viewBox="0 0 22 16">
        <path fill="currentColor" stroke-width="1.5" d="m11.3706 13.4797-.5747-.4562.5747.4562c-.7006.8826-2.0406.8826-2.7412 0L1.1738 4.0881C.2633 2.9412 1.08 1.25 2.5444 1.25h14.9112c1.4644 0 2.2811 1.6912 1.3706 2.838l-7.4556 9.3917Z"/>
    </symbol>

    <symbol id="search" viewBox="0 0 24 24">
        <path fill="transparent" stroke="currentColor" stroke-linecap="round" stroke-linejoin="round" stroke-width="1.5" d="M11 19c4.4183 0 8-3.5817 8-8s-3.5817-8-8-8-8 3.5817-8 8 3.5817 8 8 8Zm10 2-4-4"/>
    </symbol>

    <symbol id="calculator" viewBox="0 0 24 24">
        <path fill="transparent" stroke="currentColor" stroke-linecap="round" stroke-linejoin="round" stroke-width="1.5" d="M10 22h4c5 0 7-2 7-7V9c0-5-2-7-7-7h-4C5 2 3 4 3 9v6c0 5 2 7 7 7Z"/>
        <path fill="transparent"  stroke="currentColor" stroke-linecap="round" stroke-linejoin="round" stroke-width="1.5" d="M16.5 7.58v1c0 .82-.67 1.5001-1.5 1.5001H9c-.82 0-1.5-.67-1.5-1.5v-1c0-.82.67-1.5 1.5-1.5h6c.83 0 1.5.67 1.5 1.5ZM8.1361 14h.0116m3.8478 0h.0115m3.8469 0h.0115m-7.7293 3.5h.0116m3.8478 0h.0115m3.8469 0h.0115"/>
    </symbol>

    <symbol id="messageWithStars" viewBox="0 0 20 20">
        <g clip-path="url(#clip0_7159_69882)">
        <path d="M12.0814 4.26219L13.2546 3.11844C13.3381 3.03702 13.3972 2.93382 13.4252 2.82053C13.4532 2.70724 13.4488 2.58839 13.4127 2.47743C13.3766 2.36647 13.3102 2.26783 13.2209 2.19268C13.1317 2.11753 13.0232 2.06886 12.9077 2.05219L11.2858 1.81657L10.5608 0.347193C10.5032 0.249759 10.4212 0.169018 10.3229 0.11293C10.2246 0.0568419 10.1134 0.0273437 10.0002 0.0273438C9.887 0.0273438 9.77577 0.0568419 9.67746 0.11293C9.57915 0.169018 9.49715 0.249759 9.43956 0.347193L8.71456 1.81657L7.09268 2.05219C6.97724 2.06896 6.8688 2.11769 6.77962 2.19288C6.69044 2.26808 6.62408 2.36672 6.58806 2.47767C6.55203 2.58861 6.54777 2.70743 6.57576 2.82067C6.60375 2.93391 6.66287 3.03706 6.74643 3.11844L7.91956 4.26219L7.64268 5.87782C7.62307 5.99267 7.63596 6.11072 7.67988 6.21864C7.72381 6.32656 7.79703 6.42005 7.89128 6.48856C7.98553 6.55707 8.09705 6.59787 8.21326 6.60635C8.32947 6.61483 8.44573 6.59066 8.54893 6.53657L10.0002 5.77407L11.4508 6.53657C11.554 6.59084 11.6704 6.61514 11.7867 6.60675C11.903 6.59835 12.0146 6.55757 12.109 6.48904C12.2033 6.4205 12.2766 6.32694 12.3206 6.21893C12.3645 6.11091 12.3774 5.99276 12.3577 5.87782L12.0814 4.26219ZM19.9696 4.32532C19.9335 4.2145 19.8671 4.11597 19.778 4.04087C19.6889 3.96577 19.5805 3.91709 19.4652 3.90032L17.8433 3.66407L17.1177 2.19469C17.0602 2.0971 16.9783 2.01621 16.8799 1.96001C16.7816 1.9038 16.6703 1.87424 16.5571 1.87424C16.4438 1.87424 16.3325 1.9038 16.2342 1.96001C16.1359 2.01621 16.0539 2.0971 15.9964 2.19469L15.2714 3.66407L13.6496 3.89969C13.5341 3.91646 13.4257 3.96519 13.3365 4.04038C13.2473 4.11558 13.181 4.21422 13.1449 4.32517C13.1089 4.43611 13.1046 4.55493 13.1326 4.66817C13.1606 4.78141 13.2197 4.88456 13.3033 4.96594L14.4771 6.10969L14.1996 7.72532C14.1797 7.8403 14.1925 7.95855 14.2364 8.06666C14.2803 8.17477 14.3535 8.26844 14.4479 8.33706C14.5423 8.40568 14.654 8.44651 14.7704 8.45493C14.8867 8.46334 15.0032 8.43902 15.1064 8.38469L16.5564 7.62219L18.0077 8.38469C18.1109 8.43902 18.2274 8.46334 18.3437 8.45493C18.4601 8.44651 18.5718 8.40568 18.6662 8.33706C18.7606 8.26844 18.8339 8.17477 18.8777 8.06666C18.9216 7.95855 18.9344 7.8403 18.9146 7.72532L18.6377 6.10969L19.8108 4.96594C19.8944 4.88461 19.9536 4.78151 19.9816 4.66829C20.0097 4.55508 20.0055 4.43628 19.9696 4.32532ZM6.35018 3.89969L4.72893 3.66407L4.00393 2.19469C3.95235 2.09003 3.8725 2.00189 3.77342 1.94026C3.67434 1.87863 3.55999 1.84596 3.44331 1.84596C3.32662 1.84596 3.21227 1.87863 3.11319 1.94026C3.01411 2.00189 2.93426 2.09003 2.88268 2.19469L2.15768 3.66407L0.535181 3.89969C0.419744 3.91646 0.311301 3.96519 0.222122 4.04038C0.132943 4.11558 0.0665855 4.21422 0.0305577 4.32517C-0.00547019 4.43611 -0.00973088 4.55493 0.0182576 4.66817C0.0462461 4.78141 0.105367 4.88456 0.188931 4.96594L1.36268 6.10969L1.08581 7.72532C1.0662 7.84017 1.07908 7.95822 1.12301 8.06614C1.16694 8.17406 1.24016 8.26755 1.33441 8.33606C1.42866 8.40457 1.54018 8.44537 1.65639 8.45385C1.77259 8.46233 1.88886 8.43816 1.99206 8.38407L3.44331 7.62157L4.89331 8.38407C4.99654 8.43851 5.11296 8.46296 5.22937 8.45464C5.34579 8.44633 5.45755 8.40558 5.552 8.33702C5.64645 8.26846 5.71981 8.17482 5.76379 8.06671C5.80776 7.9586 5.82058 7.84034 5.80081 7.72532L5.52393 6.10969L6.69768 4.96594C6.78107 4.88449 6.84003 4.78134 6.86787 4.66814C6.89572 4.55495 6.89136 4.43622 6.85528 4.32537C6.8192 4.21453 6.75283 4.11598 6.66369 4.04087C6.57454 3.96576 6.46617 3.91707 6.35081 3.90032L6.35018 3.89969ZM16.2502 9.37344H3.75018C3.25305 9.37394 2.77643 9.57164 2.4249 9.92317C2.07338 10.2747 1.87568 10.7513 1.87518 11.2484V16.2484C1.87568 16.7456 2.07338 17.2222 2.4249 17.5737C2.77643 17.9252 3.25305 18.1229 3.75018 18.1234H7.86643L9.55831 19.8153C9.67551 19.9325 9.83445 19.9983 10.0002 19.9983C10.1659 19.9983 10.3249 19.9325 10.4421 19.8153L12.1339 18.1234H16.2502C16.7473 18.1229 17.2239 17.9252 17.5755 17.5737C17.927 17.2222 18.1247 16.7456 18.1252 16.2484V11.2484C18.1247 10.7513 17.927 10.2747 17.5755 9.92317C17.2239 9.57164 16.7473 9.37394 16.2502 9.37344ZM15.0002 15.6234H5.00018C4.83442 15.6234 4.67545 15.5576 4.55824 15.4404C4.44103 15.3232 4.37518 15.1642 4.37518 14.9984C4.37518 14.8327 4.44103 14.6737 4.55824 14.5565C4.67545 14.4393 4.83442 14.3734 5.00018 14.3734H15.0002C15.1659 14.3734 15.3249 14.4393 15.4421 14.5565C15.5593 14.6737 15.6252 14.8327 15.6252 14.9984C15.6252 15.1642 15.5593 15.3232 15.4421 15.4404C15.3249 15.5576 15.1659 15.6234 15.0002 15.6234ZM15.0002 13.1234H5.00018C4.83442 13.1234 4.67545 13.0576 4.55824 12.9404C4.44103 12.8232 4.37518 12.6642 4.37518 12.4984C4.37518 12.3327 4.44103 12.1737 4.55824 12.0565C4.67545 11.9393 4.83442 11.8734 5.00018 11.8734H15.0002C15.1659 11.8734 15.3249 11.9393 15.4421 12.0565C15.5593 12.1737 15.6252 12.3327 15.6252 12.4984C15.6252 12.6642 15.5593 12.8232 15.4421 12.9404C15.3249 13.0576 15.1659 13.1234 15.0002 13.1234Z" fill="white"/>
        </g>
        <defs>
        <clipPath id="clip0_7159_69882">
        <rect width="20" height="20" fill="white"/>
        </clipPath>
        </defs>
    </symbol>

    <symbol id="link" viewBox="0 0 24 24">
        <path fill="transparent" stroke="#fff" stroke-linecap="round" stroke-linejoin="round" stroke-width="1.5" d="m8.7069 14.3642 5.6568-5.6569m-7.7778 2.1212-1.4142 1.4142c-1.562 1.5621-1.5624 4.0948-.0003 5.6569s4.095 1.5621 5.6572 0l1.4136-1.4142M10.828 6.5858l1.4142-1.4143c1.5621-1.562 4.0946-1.562 5.6567.0001s1.5625 4.0947.0004 5.6568l-1.4141 1.4142"/>
    </symbol>

    <symbol id="singleArrowLeft" viewBox="0 0 13 22">
        <path fill="transparent" stroke="#fff" stroke-linecap="round" stroke-linejoin="round" stroke-width="3" d="M11.3333 20.3346 2 11.0013l9.3333-9.3333"/>
    </symbol>

    <symbol id="singleArrowRight" viewBox="0 0 13 22">
        <path fill="transparent" stroke="#fff" stroke-linecap="round" stroke-linejoin="round" stroke-width="3" d="m1.664 1.668 9.3334 9.3333-9.3333 9.3333"/>
    </symbol>

    <symbol id="singleArrowRightDark" viewBox="0 0 6 10">
        <path fill="transparent" stroke="#232727" stroke-linecap="round" stroke-linejoin="round" stroke-width="1.5" d="m1 1 4 4-4 4"/>
    </symbol>

    <symbol  id="singleArrowRightBlue" viewBox="0 0 6 10">
        <path fill="transparent" stroke="#357EFE" stroke-linecap="round" stroke-linejoin="round" stroke-width="1.5" d="m1 1 4 4-4 4"/>
    </symbol>

    <symbol id="singleArrowTopBlue" viewBox="0 0 10 6">
        <path fill="transparent" stroke="currentColor" stroke-linecap="round" stroke-linejoin="round" stroke-width="1.5" d="m1 5 4-4 4 4"/>
    </symbol>

    <symbol id="arrowRight" viewBox="0 0 16 12">
        <path fill="currentColor" d="M1 5.25a.75.75 0 0 0 0 1.5v-1.5Zm14.5303 1.2803a.75.75 0 0 0 0-1.0606L10.7574.6967a.75.75 0 0 0-1.0607 1.0607L13.9393 6l-4.2426 4.2426a.75.75 0 0 0 1.0607 1.0607l4.7729-4.773ZM1 6.75h14v-1.5H1v1.5Z"/>
    </symbol>

    <symbol id="sidebarIcon" viewBox="0 0 24 24">
        <g stroke="currentColor" stroke-linecap="round" stroke-width="1.5" clip-path="url(#a)">
            <path d="M2.75 18.25h5.5m-5.5-6h12.5m-12.5-6h18.5"/>
        </g>
        <defs>
            <clipPath id="a"><path fill="#fff" d="M0 0h24v24H0z"/></clipPath>
        </defs>
    </symbol>

    <symbol id="sidebar-icon-1" viewBox="0 0 24 24">
        <path fill="transparent" stroke="currentColor" stroke-linecap="round" stroke-linejoin="round" stroke-width="1.5" d="M4.75 17.4V6.6c0-1.5.64-2.1 2.23-2.1h1.04c1.59 0 2.23.6 2.23 2.1v10.8c0 1.5-.64 2.1-2.23 2.1H6.98c-1.59 0-2.23-.6-2.23-2.1Zm8.5-2V8.6c0-1.5.64-2.1 2.23-2.1h1.04c1.59 0 2.23.6 2.23 2.1v6.8c0 1.5-.64 2.1-2.23 2.1h-1.04c-1.59 0-2.23-.6-2.23-2.1ZM2 12h2.4m6.6 0h2m8.9986 0h-2.69"/>
    </symbol>

    <svg id="sidebar-icon-2" viewBox="0 0 24 24">
        <g fill="transparent" stroke="currentColor" stroke-linecap="round" stroke-linejoin="round" stroke-width="1.5" clip-path="url(#a)">
            <path d="m6.5794 6.3201 8.49-2.83c3.81-1.27 5.88.81 4.62 4.62l-2.83 8.4901c-1.9 5.71-5.02 5.71-6.92 0l-.84-2.52-2.52-.84c-5.71-1.9-5.71-5.01 0-6.92Zm2.7096 7.3285 3.5801-3.59"/>
        </g>
        <defs>
            <clipPath id="a"><path fill="#fff" d="M0 0h24v24H0z"/></clipPath>
        </defs>
    </svg>

    <svg id="sidebar-icon-3" viewBox="0 0 24 24">
        <g fill="transparent" stroke="currentColor" stroke-linecap="round" stroke-linejoin="round" stroke-miterlimit="10" stroke-width="1.5" clip-path="url(#a)">
            <path d="M2.086 2h1.74c1.08 0 1.93.93 1.84 2l-.83 9.96c-.14 1.63 1.15 3.03 2.79 3.03h10.6499c1.44 0 2.7-1.18 2.81-2.61l.54-7.5c.12-1.66-1.14-3.01-2.81-3.01h-12.91M16.3359 22c.6904 0 1.25-.5596 1.25-1.25s-.5596-1.25-1.25-1.25c-.6903 0-1.25.5596-1.25 1.25s.5597 1.25 1.25 1.25ZM8.336 22c.6903 0 1.25-.5596 1.25-1.25s-.5597-1.25-1.25-1.25c-.6904 0-1.25.5596-1.25 1.25S7.6455 22 8.336 22Zm.75-14h11.9999"/>
        </g>
        <defs>
            <clipPath id="a"><path fill="#fff" d="M0 0h24v24H0z"/></clipPath>
        </defs>
    </svg>

    <svg id="sidebar-icon-4" viewBox="0 0 24 24">
        <path fill="transparent" stroke="currentColor" stroke-linecap="round" stroke-linejoin="round" stroke-width="1.5" d="M12 21c4.9706 0 9-4.0294 9-9s-4.0294-9-9-9-9 4.0294-9 9 4.0294 9 9 9Z"/>
        <path fill="transparent" stroke="currentColor" stroke-linecap="round" stroke-linejoin="round" stroke-width="1.5" d="M9.3008 9.3027c.2177-.601.6476-1.1079 1.2133-1.4307.5658-.3229 1.2309-.4409 1.8777-.3332.6468.1078 1.2334.4342 1.656.9217.4227.4874.654 1.1044.653 1.7415 0 1.7987-2.7788 2.698-2.7788 2.698M12 16.5h.009"/>
    </svg>

    <svg id="target" viewBox="0 0 18 18">
        <g fill="transparent" stroke="currentColor" stroke-linecap="round" stroke-linejoin="round" stroke-width="1.5" clip-path="url(#a)">
            <path d="M9.0006 14.7863c3.1953 0 5.7857-2.5904 5.7857-5.7857 0-3.1954-2.5904-5.7858-5.7857-5.7858-3.1954 0-5.7858 2.5904-5.7858 5.7858 0 3.1953 2.5904 5.7857 5.7858 5.7857Z"/>
            <path d="M8.9983 9.6412a.6428.6428 0 1 0 0-1.2857.6428.6428 0 0 0 0 1.2857ZM9 3.212V.6406m0 16.7121v-2.5715M14.7812 9h2.5715M.6406 9h2.5715"/>
        </g>
        <defs>
            <clipPath id="a"><path fill="#fff" d="M0 0h18v18H0z"/></clipPath>
        </defs>
    </svg>

    <svg id="pencil" viewBox="0 0 20 20">
        <path fill="transparent" stroke="currentColor" stroke-linecap="round" stroke-linejoin="round" stroke-width="1.5" d="M2.5 16.6667h14.1667m-14.1667 0v-3.6358l9.6233-9.879c.3506-.36.5259-.54.7281-.6074a.8638.8638 0 0 1 .5473 0c.2021.0674.3774.2474.728.6074l1.5382 1.579c.3507.36.526.54.5917.7475a.9314.9314 0 0 1 0 .5617c-.0657.2076-.241.3876-.5917.7475l-9.6232 9.879-3.5417.0001Z"/>
    </svg>

    <svg id="check-in-circle" viewBox="0 0 20 20">
        <path fill="transparent" stroke="currentColor" stroke-linecap="round" stroke-linejoin="round" stroke-width="1.5" d="m6.1563 11.2845 2.6282 2.1025a.616.616 0 0 0 .5128.1282.6413.6413 0 0 0 .4359-.3077l4.1154-7.0512"/>
        <path fill="transparent" stroke="currentColor" stroke-linecap="round" stroke-linejoin="round" stroke-width="1.5" d="M10.0013 18.3346c4.6024 0 8.3333-3.7309 8.3333-8.3333 0-4.6024-3.7309-8.3333-8.3333-8.3333-4.6024 0-8.3333 3.731-8.3333 8.3333 0 4.6024 3.731 8.3333 8.3333 8.3333Z"/>
    </svg>

    <svg id="unit-calculator" viewBox="0 0 13 13">
        <rect fill="transparent" width="10.7188" height="11.5" x="1.3477" y=".5" stroke="currentColor" rx="3.7067"/>
        <path fill="transparent" stroke="currentColor" stroke-linecap="round" stroke-linejoin="round" d="M7.4844 4.0664H9.828m-6.2499 0H5.922m1.5624 3.3281H9.828M7.4844 9.4727H9.828M8.664 5.313V2.8164M3.5781 9.684 5.922 7.1876M5.9219 9.684 3.578 7.1876"/>
    </svg>

    <svg id="import" viewBox="0 0 16 16">
        <path fill="transparent" stroke="currentColor" stroke-linecap="round" stroke-linejoin="round" stroke-width="1.5" d="M10.959 5.9336c2.4.2067 3.38 1.44 3.38 4.14v.0867c0 2.98-1.1933 4.1733-4.1733 4.1733h-4.34c-2.98 0-4.1734-1.1933-4.1734-4.1733v-.0867c0-2.68.9667-3.9133 3.3267-4.1333M8 1.332v8.5867"/>
        <path fill="transparent" stroke="currentColor" stroke-linecap="round" stroke-linejoin="round" stroke-width="1.5" d="M10.2323 8.4336 7.999 10.6669 5.7656 8.4336"/>
    </svg>
</svg>