<svg width="24" height="24" viewBox="0 0 24 24" fill="none" xmlns="http://www.w3.org/2000/svg">
<path d="M12 21C16.9706 21 21 16.9706 21 12C21 7.02944 16.9706 3 12 3C7.02944 3 3 7.02944 3 12C3 16.9706 7.02944 21 12 21Z" stroke="#232727" stroke-width="1.5" stroke-linecap="round" stroke-linejoin="round"/>
<path d="M9.2998 9.30268C9.51757 8.70163 9.94739 8.19481 10.5131 7.87197C11.0789 7.54913 11.7441 7.43112 12.3908 7.53884C13.0376 7.64656 13.6243 7.97305 14.0469 8.46049C14.4695 8.94793 14.7008 9.56486 14.6998 10.202C14.6998 12.0007 11.9211 12.9 11.9211 12.9" stroke="#232727" stroke-width="1.5" stroke-linecap="round" stroke-linejoin="round"/>
<path d="M12 16.5H12.009" stroke="#232727" stroke-width="1.5" stroke-linecap="round" stroke-linejoin="round"/>
</svg>
